<svg xmlns="http://www.w3.org/2000/svg" viewBox="0 0 1666 1666">+<defs><filter id="a" width="140%" height="140%" x="-20%" y="-20%"><feGaussianBlur in="SourceAlpha" stdDeviation="20"/><feOffset/><feMerge><feMergeNode/><feMergeNode in="SourceGraphic"/></feMerge></filter></defs><path d="m834 1487-34.72-62-65.86-116-188.27-332-55-97c-16.51-28.92-30.94-52.56-43.09-84-15.27-39.52-25.25-81.63-27.1-124l-.96-13v-29l.91-10c2.61-38.14 9.51-74.91 22.4-111 14.65-41.04 35.3-79.58 62.11-114 29.86-38.32 65.53-70.95 106.58-96.95 122.79-77.77 280.32-86.04 411-22.79 108.91 52.71 191.27 153.32 220.63 270.74 5.31 21.25 8.93 43.17 10.46 65l.91 10 1 29-1 21c-.15 12.43-2.85 30.51-4.92 43-6.08 36.71-16.86 71.19-32.39 105-10.92 23.78-24.88 46.29-37.84 69l-50.43 88L836 1487h-2Zm-2-1076.72-25 1.88c-13.52 1.46-27.97 4.68-41 8.56-58.15 17.33-109.95 60.42-137.74 114.28-17.38 33.68-26.7 72.1-26.26 110l1.04 10v8c6.34 65.1 40.52 124.58 92.96 163.52 19.35 14.37 41.16 25.53 64 33.15 17.94 5.98 36.13 10.04 55 11.42l10 .91c32.35.37 59.28-2.75 90-13.69 63.41-22.58 115.76-74.06 138.95-137.31 11.33-30.91 14.43-57.36 14.05-90-.23-19.03-5.97-46.02-12.31-64-25.5-72.32-81.71-126.31-155.69-147.42-12.92-3.69-35.79-8.42-49-8.58l-19-.72Z" filter="url(#a)" opacity=".4" transform="scale(1.05 .8) rotate(20 -254.55 1573.127)"/><path fill="#f64521" stroke="#000" stroke-width="10" d="m834 1487-34.72-62-65.86-116-188.27-332-55-97c-16.51-28.92-30.94-52.56-43.09-84-15.27-39.52-25.25-81.63-27.1-124l-.96-13v-29l.91-10c2.61-38.14 9.51-74.91 22.4-111 14.65-41.04 35.3-79.58 62.11-114 29.86-38.32 65.53-70.95 106.58-96.95 122.79-77.77 280.32-86.04 411-22.79 108.91 52.71 191.27 153.32 220.63 270.74 5.31 21.25 8.93 43.17 10.46 65l.91 10 1 29-1 21c-.15 12.43-2.85 30.51-4.92 43-6.08 36.71-16.86 71.19-32.39 105-10.92 23.78-24.88 46.29-37.84 69l-50.43 88L836 1487h-2Zm-2-1076.72-25 1.88c-13.52 1.46-27.97 4.68-41 8.56-58.15 17.33-109.95 60.42-137.74 114.28-17.38 33.68-26.7 72.1-26.26 110l1.04 10v8c6.34 65.1 40.52 124.58 92.96 163.52 19.35 14.37 41.16 25.53 64 33.15 17.94 5.98 36.13 10.04 55 11.42l10 .91c32.35.37 59.28-2.75 90-13.69 63.41-22.58 115.76-74.06 138.95-137.31 11.33-30.91 14.43-57.36 14.05-90-.23-19.03-5.97-46.02-12.31-64-25.5-72.32-81.71-126.31-155.69-147.42-12.92-3.69-35.79-8.42-49-8.58l-19-.72Z"/></svg>