<svg xmlns="http://www.w3.org/2000/svg" viewBox="-7.225 -9.725 303.45 303.45">
  <circle cx="144.5" cy="142" r="151.725" fill="white" />
  <path fill="#f6b221" stroke="#f6b221" stroke-width="2" d="M77.24 270.06a44.99 44.99 0 0 1-63.56-3.18 45 45 0 1 1 66.74-60.38 44.98 44.98 0 0 1-3.18 63.56Z"></path>
  <g fill="#16161d" stroke="#16161d" stroke-width="2">
    <!-- <style>
      @media (prefers-color-scheme: dark) {
        path {
          fill="#ffffff"; 
          stroke="#ffffff";
        }
      }
    </style> -->
    <path  d="M139.98 71.67a40 40 0 1 1-53.67-59.32 40 40 0 1 1 53.67 59.32Z"></path>
    <path  d="M106.78 169.13a40 40 0 1 1-53.68-59.32 40 40 0 0 1 53.68 59.32Z"></path>
    <path  d="M173.88 243.29a40 40 0 0 1-56.5-2.83 40 40 0 1 1 59.32-53.67 40 40 0 0 1-2.82 56.5Z"></path>
    <path  d="M207.07 145.83a40 40 0 1 1-53.67-59.32 40 40 0 0 1 53.67 59.32Z"></path>
    <path  d="M274.16 219.98a40 40 0 1 1-53.68-59.31 40 40 0 0 1 53.68 59.31Z"></path>
  </g>
</svg>
